<svg width="180" height="180" viewBox="0 0 180 180" fill="none" xmlns="http://www.w3.org/2000/svg">
<rect width="180" height="180" fill="white"/>
<path d="M158.659 31.4858C158.962 32.4762 158.815 33.4117 158.815 34.3379C158.741 49.2591 158.714 64.1894 158.246 79.1014C158.063 84.9067 157.045 90.611 155.513 96.2145C153.945 101.965 152.001 107.596 149.607 113.043C146.342 120.463 142.234 127.377 137.025 133.641C131.614 140.143 125.478 145.811 118.646 150.763C110.768 156.477 102.239 160.971 93.1506 164.437C90.812 165.327 88.5651 165.107 86.2082 164.162C77.7984 160.806 69.9848 156.349 62.5563 151.249C55.8156 146.627 49.616 141.326 44.2602 135.127C39.2895 129.386 35.346 122.966 32.0169 116.115C29.8159 111.585 27.8808 106.972 26.4043 102.185C23.6897 93.3806 21.5437 84.4298 21.4245 75.1488C21.241 61.3373 21.1402 47.5258 21.0026 33.7051C20.9843 31.5225 21.0026 31.5225 23.2128 31.4949C26.2025 31.4491 29.1739 31.6508 32.1545 31.7701C41.8115 32.1644 51.3585 31.5225 60.7588 28.8996C67.9396 26.9003 74.6436 23.9472 81.0083 20.1505C83.4844 18.6739 85.9789 17.2066 88.3634 15.5833C89.6473 14.7121 90.647 14.8863 91.8575 15.6475C95.4984 17.9769 99.1026 20.3889 102.881 22.489C110.823 26.9003 119.315 29.7158 128.358 30.963C135.145 31.9076 141.94 32.1186 148.763 31.8801C151.23 31.7976 153.697 31.55 156.164 31.3941C157.008 31.339 157.852 31.229 158.668 31.4858H158.659ZM26.4135 57.513H26.6519C26.6519 62.5387 26.6244 67.5735 26.6519 72.5992C26.6886 77.5516 27.2664 82.4764 28.1468 87.3278C29.7517 96.1411 32.5305 104.606 36.309 112.759C40.766 122.37 46.718 130.853 54.5867 137.979C61.0981 143.885 68.1689 149.039 75.7992 153.377C79.9995 155.762 84.3924 157.825 88.9228 159.549C89.6015 159.806 90.1792 159.916 90.8671 159.613C93.9668 158.238 97.1308 156.99 100.194 155.514C106.403 152.524 112.29 148.993 117.729 144.729C125.543 138.612 132.595 131.789 137.868 123.306C142.004 116.647 145.352 109.622 147.947 102.212C151.212 92.8762 152.762 83.2742 153.165 73.4338C153.587 63.0339 153.45 52.634 153.514 42.225C153.514 41.1153 153.477 40.0056 153.523 38.8959C153.569 37.9146 153.184 37.4744 152.184 37.557C151.68 37.5936 151.157 37.5661 150.653 37.557C142.894 37.4652 135.135 37.6303 127.423 36.5298C119.792 35.4385 112.501 33.2191 105.559 29.9084C100.955 27.7165 96.5897 25.0844 92.2335 22.434C89.1979 20.5907 89.9591 20.8016 87.3546 22.5899C82.7874 25.7447 77.9543 28.4318 72.8461 30.5228C67.1968 32.8431 61.3824 34.7048 55.302 35.7503C49.4143 36.7591 43.5357 37.667 37.547 37.5845C34.3922 37.5478 31.2374 37.5019 28.0826 37.4561C26.441 37.4286 26.4043 37.4194 26.3951 39.0702C26.3768 45.2055 26.3951 51.3501 26.3951 57.4855L26.4135 57.513Z" fill="#363E3F"/>
<path d="M88.7302 31.0089C88.776 31.9168 88.8494 32.7147 88.8494 33.5218C88.8311 52.1939 88.8127 70.8751 88.776 89.5472C88.776 92.7112 89.0328 92.2985 86.0798 92.3077C70.1314 92.3169 54.1831 92.3077 38.2348 92.3077C35.2451 92.3077 35.2176 92.3077 34.7682 89.3271C33.0532 78.0743 32.7597 66.7482 33.0807 55.4037C33.1633 52.4231 33.2641 49.4426 33.3834 46.4528C33.4567 44.6645 33.5026 44.5636 35.3276 44.8846C37.2718 45.2239 39.2344 45.2056 41.1787 45.3982C47.4241 46.0126 53.5962 45.4165 59.7774 44.5544C66.9308 43.5548 73.6348 41.2804 79.8985 37.6945C82.4939 36.2089 84.8417 34.4113 87.006 32.357C87.4737 31.9168 87.8039 31.2749 88.7118 31.0089H88.7302ZM77.8809 67.702C77.8809 64.9415 77.9818 62.8047 77.8534 60.677C77.7342 58.7878 76.8171 58.0449 75.0838 58.0266C73.4146 58.0082 72.4609 58.8612 72.2408 60.6403C72.1674 61.2273 72.2041 61.8325 72.2041 62.4287C72.2041 65.4092 72.2683 68.399 72.1857 71.3795C72.094 74.8462 69.8655 77.3131 66.6098 77.4966C63.1523 77.6983 60.5294 75.4239 60.3644 71.8839C60.2084 68.6466 60.3093 65.4001 60.3002 62.1627C60.3002 61.3098 60.2818 60.4661 59.9517 59.6499C59.4289 58.3476 58.4476 57.9257 57.0995 58.0174C55.8431 58.1 55.0452 58.6227 54.715 59.8975C54.5408 60.567 54.4582 61.2273 54.4582 61.9151C54.4582 65.0699 54.4399 68.2247 54.4674 71.3795C54.4858 73.0028 54.5866 74.6811 55.2928 76.1209C57.4572 80.578 60.8596 83.311 66.0595 83.3476C71.8281 83.3935 76.2852 79.8443 77.5966 74.195C78.1469 71.8197 77.7342 69.4353 77.8901 67.6928L77.8809 67.702Z" fill="#313A3B"/>
<path d="M91.0413 30.5228C93.4257 32.8339 95.3975 34.6498 97.6352 36.1813C101.175 38.6025 104.99 40.455 108.998 41.8581C117.123 44.7011 125.579 45.6366 134.126 45.6274C137.611 45.6274 141.115 45.389 144.581 44.8754C146.388 44.6094 146.416 44.6553 146.516 46.4711C147.186 58.8336 147.278 71.1961 145.948 83.5219C145.719 85.6404 145.388 87.7497 145.049 89.8498C144.655 92.2985 144.627 92.3077 142.179 92.3077C133.815 92.3077 125.46 92.3077 117.096 92.3077C109.42 92.3077 101.744 92.326 94.0585 92.3077C90.8028 92.3077 91.1605 92.7479 91.1513 89.5105C91.1055 71.0035 91.0779 52.4965 91.0413 33.9803C91.0413 33.0448 91.0413 32.1094 91.0413 30.5228ZM117.123 58.0357C115.674 58.0357 114.225 58.0816 112.776 58.0266C107.466 57.7881 103.908 60.3468 101.542 64.914C97.8461 72.0306 103.789 80.3579 109.741 81.1466C114.17 81.7335 118.591 81.3575 123.011 81.4767C123.332 81.4767 123.662 81.3208 123.993 81.2291C125.322 80.8439 125.909 79.8626 125.983 78.5787C126.056 77.3681 125.267 76.3777 124.029 75.8824C123.204 75.5523 122.36 75.6073 121.507 75.6073C118.352 75.6073 115.188 75.6807 112.043 75.5706C108.888 75.4606 106.824 73.498 106.54 70.6C106.192 67.0691 107.531 65.0607 110.796 64.0336C111.722 63.7401 112.639 63.7309 113.565 63.7309C116.72 63.7309 119.875 63.7676 123.03 63.7034C124.735 63.6667 126.029 62.3461 126.001 60.8512C125.973 59.3197 124.717 58.0908 123.011 58.0541C121.049 58.0082 119.086 58.0449 117.123 58.0449V58.0357ZM116.28 69.6278C116.28 67.7936 115.124 66.6564 113.263 66.6748C111.648 66.7023 110.309 67.9862 110.282 69.5545C110.254 71.0585 111.63 72.48 113.189 72.5442C114.996 72.6176 116.28 71.407 116.289 69.6278H116.28Z" fill="#313A3B"/>
<path d="M143.371 95.545C138.712 120.499 115.849 143.133 91.2888 150.598C90.8119 149.819 91.0412 148.948 91.0412 148.122C91.0228 131.587 91.032 115.043 91.032 98.5073C91.032 98.2505 91.032 97.9937 91.032 97.7369C91.0687 95.5726 91.0687 95.5542 93.3339 95.545C106.632 95.545 119.939 95.545 133.237 95.545C136.557 95.545 139.867 95.545 143.371 95.545ZM100.175 118.28H100.185C100.185 120.325 100.13 122.37 100.203 124.415C100.267 126.176 101.239 127.121 102.853 127.212C104.357 127.295 105.641 126.295 105.926 124.727C106.027 124.149 105.99 123.535 105.99 122.939C105.99 119.784 105.935 116.629 106.017 113.474C106.091 110.503 107.586 108.678 110.355 107.917C112.96 107.201 115.317 108.183 116.912 110.54C117.674 111.658 117.866 112.869 117.857 114.171C117.839 117.409 117.848 120.646 117.857 123.893C117.857 124.92 117.903 125.928 118.875 126.616C120.902 128.056 123.433 126.974 123.506 124.452C123.626 120.279 123.543 116.097 123.415 111.924C123.378 110.851 122.965 109.76 122.543 108.742C120.553 103.918 114.886 101.176 110.86 101.708C104.788 102.506 99.9095 107.605 100.166 113.667C100.23 115.198 100.175 116.739 100.175 118.271V118.28Z" fill="#333C3C"/>
<path d="M36.7307 95.5451C37.6111 95.5451 38.4548 95.5451 39.2986 95.5451H85.8596C86.1989 95.5451 86.5382 95.5451 86.8867 95.5451C88.8126 95.5909 88.8493 95.5909 88.8493 97.5718C88.8585 114.712 88.8585 131.853 88.8493 148.984C88.8493 150.874 88.7209 150.91 87.0059 150.323C78.6237 147.489 71.0209 143.161 64.2253 137.576C57.9065 132.376 52.4589 126.295 47.9193 119.426C44.8653 114.804 42.1324 110.026 39.8672 104.973C38.8584 102.726 37.9413 100.433 37.0792 98.1313C36.7949 97.3793 36.4097 96.563 36.7399 95.5359L36.7307 95.5451ZM65.555 127.249C65.555 127.249 65.555 127.231 65.555 127.212C67.5176 127.212 69.4802 127.258 71.4336 127.194C73.332 127.13 75.1571 126.644 76.6978 125.507C80.2378 122.875 82.1545 119.536 82.0903 114.896C82.0261 110.356 77.8808 104.899 72.8276 104.083C68.3614 103.359 63.8126 103.771 59.3004 103.872C57.6588 103.909 56.7234 105.175 56.7417 106.789C56.7509 108.201 57.7322 109.402 59.1629 109.659C59.7407 109.76 60.3551 109.714 60.9512 109.714C64.106 109.714 67.2608 109.668 70.4157 109.733C73.4788 109.806 75.3221 111.328 76.1017 114.254C76.7436 116.638 75.6981 119.05 73.4604 120.591C72.4241 121.306 71.3236 121.554 70.0947 121.545C66.7748 121.526 63.4457 121.499 60.1258 121.545C58.0899 121.572 57.3287 122.086 56.9252 123.434C56.3015 125.488 57.2737 127.075 59.4288 127.212C61.4648 127.341 63.5191 127.24 65.5642 127.24L65.555 127.249ZM72.3232 115.639C72.2774 113.924 70.9109 112.713 69.1226 112.796C67.3159 112.878 66.087 114.18 66.197 115.923C66.2796 117.244 67.9487 118.812 69.2693 118.83C70.6633 118.839 72.3599 117.069 72.3232 115.648V115.639Z" fill="#333C3C"/>
<path d="M77.8719 67.7019C77.7252 69.4444 78.1287 71.8289 77.5784 74.2042C76.267 79.8535 71.8191 83.4026 66.0413 83.3568C60.8414 83.3201 57.439 80.5872 55.2746 76.1301C54.5776 74.681 54.4676 73.0028 54.4492 71.3887C54.4217 68.2339 54.4401 65.079 54.4401 61.9242C54.4401 61.2456 54.5226 60.5853 54.6969 59.9066C55.027 58.6318 55.8157 58.1091 57.0813 58.0266C58.4294 57.9348 59.4016 58.3567 59.9335 59.659C60.2636 60.4752 60.282 61.3189 60.282 62.1718C60.282 65.4092 60.1903 68.6557 60.3462 71.8931C60.5113 75.4331 63.1341 77.7075 66.5916 77.5057C69.8473 77.3131 72.0667 74.8461 72.1676 71.3887C72.2501 68.4081 72.1859 65.4184 72.1859 62.4378C72.1859 61.8417 72.1492 61.2364 72.2226 60.6495C72.4519 58.8703 73.3965 58.0266 75.0656 58.0357C76.8081 58.0541 77.716 58.7969 77.8352 60.6861C77.9636 62.8138 77.8627 64.9506 77.8627 67.7111L77.8719 67.7019Z" fill="#5CC4E6"/>
<path d="M117.133 58.0357C119.095 58.0357 121.058 57.999 123.02 58.0449C124.726 58.0907 125.992 59.3105 126.01 60.842C126.038 62.3369 124.735 63.6575 123.039 63.6942C119.884 63.7584 116.729 63.7125 113.574 63.7217C112.639 63.7217 111.731 63.7309 110.805 64.0244C107.54 65.0515 106.192 67.0599 106.549 70.5908C106.834 73.4888 108.906 75.4422 112.052 75.5614C115.207 75.6715 118.361 75.589 121.516 75.5981C122.369 75.5981 123.213 75.5523 124.038 75.8732C125.276 76.3685 126.065 77.3589 125.992 78.5695C125.909 79.8626 125.331 80.8439 124.002 81.2199C123.681 81.3116 123.35 81.4767 123.02 81.4675C118.6 81.3483 114.18 81.7243 109.75 81.1374C103.807 80.3487 97.8552 72.0214 101.551 64.9048C103.917 60.3468 107.476 57.7881 112.786 58.0174C114.235 58.0816 115.684 58.0265 117.133 58.0265V58.0357Z" fill="#F3F3F3"/>
<path d="M116.289 69.6279C116.289 71.4162 114.996 72.6268 113.189 72.5442C111.63 72.48 110.254 71.0585 110.282 69.5545C110.309 67.9863 111.648 66.7023 113.262 66.6748C115.124 66.6473 116.289 67.7845 116.28 69.6279H116.289Z" fill="#F3F3F3"/>
<path d="M100.176 118.28C100.176 116.748 100.231 115.208 100.166 113.676C99.9096 107.605 104.789 102.506 110.86 101.717C114.886 101.194 120.553 103.927 122.544 108.751C122.965 109.76 123.378 110.86 123.415 111.933C123.543 116.106 123.626 120.288 123.507 124.461C123.433 126.992 120.902 128.065 118.875 126.625C117.903 125.928 117.857 124.92 117.857 123.902C117.848 120.664 117.839 117.427 117.857 114.18C117.857 112.878 117.674 111.668 116.913 110.549C115.317 108.192 112.96 107.22 110.355 107.926C107.586 108.687 106.091 110.512 106.018 113.483C105.935 116.638 105.999 119.793 105.99 122.948C105.99 123.544 106.036 124.149 105.926 124.736C105.641 126.304 104.358 127.304 102.854 127.221C101.239 127.13 100.267 126.185 100.203 124.424C100.13 122.379 100.185 120.334 100.185 118.289H100.176V118.28Z" fill="#F7F7F7"/>
<path d="M65.5552 127.249C63.51 127.249 61.4557 127.35 59.4198 127.222C57.2646 127.084 56.3017 125.497 56.9161 123.443C57.3196 122.095 58.09 121.581 60.1168 121.554C63.4367 121.508 66.7657 121.526 70.0856 121.554C71.3145 121.554 72.4059 121.316 73.4514 120.6C75.6799 119.059 76.7254 116.657 76.0926 114.263C75.3131 111.337 73.4605 109.806 70.4066 109.742C67.2518 109.668 64.097 109.723 60.9422 109.723C60.346 109.723 59.7408 109.769 59.1538 109.668C57.714 109.412 56.7419 108.219 56.7327 106.798C56.7143 105.184 57.6498 103.918 59.2914 103.881C63.8035 103.781 68.3523 103.368 72.8186 104.092C77.8718 104.909 82.0171 110.375 82.0812 114.905C82.1454 119.546 80.2287 122.884 76.6887 125.516C75.148 126.662 73.323 127.148 71.4246 127.203C69.4712 127.267 67.5086 127.222 65.546 127.222C65.546 127.231 65.546 127.24 65.546 127.258L65.5552 127.249Z" fill="#F5F6F7"/>
<path d="M72.3235 115.639C72.3602 117.06 70.6635 118.83 69.2695 118.821C67.9398 118.812 66.2798 117.234 66.1973 115.914C66.0872 114.18 67.3161 112.869 69.1228 112.786C70.9203 112.704 72.2776 113.914 72.3235 115.629V115.639Z" fill="#F3F3F3"/>
</svg>
