<svg width="250" height="84" viewBox="0 0 250 84" fill="none" xmlns="http://www.w3.org/2000/svg">
<g clip-path="url(#clip0_1919_45698)">
<path d="M86.3288 17.4388C86.3288 14.4175 86.3134 11.3962 86.339 8.37486C86.3441 7.49194 86.2369 6.62943 86.1041 5.76692C85.9101 4.51654 85.1902 3.66935 83.9597 3.3223C83.3112 3.13857 82.6577 2.97016 81.9684 2.97016C81.514 2.97016 80.8758 3.10285 80.9319 2.36793C80.983 1.67895 81.6008 1.84737 82.0603 1.84226C82.8568 1.83206 83.6533 1.83716 84.4447 1.83716C88.4221 1.83716 92.4047 1.83716 96.3821 1.84226C96.4229 1.84226 96.4638 1.84226 96.4995 1.84226C96.9437 1.83206 97.4747 1.79633 97.5002 2.39855C97.5258 3.0365 96.9692 2.93953 96.5403 2.98547C96.0706 3.0365 95.5958 3.10795 95.1311 3.21513C93.0378 3.69487 92.18 4.71048 92.083 6.8744C92.0319 8.02782 92.0472 9.18123 92.0472 10.3346C92.0472 15.622 92.0728 20.9144 92.0472 26.2017C92.037 28.0798 92.2923 29.9273 92.6344 31.7595C93.3645 35.6229 95.6724 37.8991 99.5477 38.68C102.851 39.3486 105.961 38.8127 108.901 37.2918C112.031 35.674 113.517 32.964 113.834 29.5088C114.242 25.1044 114.007 20.6898 114.063 16.2803C114.094 13.7336 114.053 11.192 114.079 8.64535C114.089 7.64505 113.951 6.66005 113.783 5.68527C113.532 4.25626 112.807 3.54686 111.362 3.26616C110.663 3.13347 109.948 3.06202 109.238 2.97016C108.896 2.92422 108.585 2.83236 108.58 2.42918C108.575 2.0362 108.861 1.8882 109.208 1.85757C109.443 1.83716 109.683 1.84226 109.923 1.84226C113.701 1.84226 117.484 1.84226 121.263 1.84226C121.462 1.84226 121.671 1.82185 121.855 1.87799C122.161 1.96985 122.289 2.22503 122.263 2.52614C122.238 2.79663 122.049 2.95995 121.783 2.95995C121.14 2.95995 120.517 3.06202 119.899 3.22023C118.041 3.69487 117.03 4.72579 116.928 6.62433C116.78 9.35475 116.54 12.0903 116.805 14.836C116.918 16.0149 116.897 17.2143 116.754 18.4034C116.662 19.1894 116.693 19.9906 116.688 20.7868C116.672 23.2518 116.708 25.7169 116.637 28.1819C116.565 30.5398 116.177 32.8415 115.054 34.9646C113.497 37.9042 111.036 39.7977 107.911 40.7265C103.545 42.0177 99.1137 42.0586 94.7635 40.65C90.3674 39.2261 87.8043 36.0925 86.8496 31.6115C86.5177 30.0498 86.4462 28.4575 86.4207 26.8754C86.3645 23.7367 86.4053 20.5929 86.4053 17.4541C86.3798 17.4541 86.3543 17.4541 86.3339 17.4541L86.3288 17.4388Z" fill="white"/>
<path d="M212.12 16.2498C212.217 13.795 212.222 11.5392 212.105 9.2834C212.059 8.36986 212.013 7.45632 211.906 6.54788C211.717 5.02701 210.941 4.47072 209.44 4.7259C209.128 4.77693 208.822 4.8739 208.505 4.90452C208.178 4.94025 207.99 4.731 207.918 4.42989C207.847 4.13898 207.877 3.86339 208.189 3.72559C208.515 3.58269 208.852 3.46531 209.184 3.33262C210.987 2.6028 212.784 1.85258 214.596 1.14828C216.756 0.301084 217.001 0.474606 217.006 2.76101C217.006 11.233 216.996 19.7049 217.017 28.1769C217.022 30.7185 216.869 33.2703 217.175 35.8068C217.185 35.8833 217.185 35.965 217.195 36.0466C217.446 38.1544 218.16 38.6699 220.218 38.1595C220.652 38.0523 221.02 37.9911 221.203 38.4811C221.382 38.9557 221.122 39.2262 220.693 39.3946C218.365 40.3183 216.052 41.2727 213.713 42.1607C212.59 42.5843 212.258 42.3292 212.192 41.1655C212.166 40.6909 212.192 40.2112 212.166 39.7365C212.156 39.5171 212.278 39.2262 212.013 39.0935C211.681 38.9251 211.528 39.2466 211.319 39.4099C211.257 39.4609 211.201 39.5171 211.145 39.5732C206.626 43.7684 200.27 43.0028 196.481 38.1748C194.485 35.6281 193.658 32.6936 193.714 29.4936C193.78 25.4261 195.006 21.7566 197.589 18.5872C199.08 16.7551 200.944 15.4077 203.231 14.7698C205.789 14.0553 208.27 14.387 210.655 15.5404C211.079 15.7446 211.497 15.9589 212.12 16.2702V16.2498ZM212.171 28.9577H212.181C212.181 27.3297 212.207 25.6966 212.176 24.0685C212.141 22.2976 211.727 20.6185 210.823 19.067C209.205 16.2804 204.962 15.1729 202.251 18.0259C201.076 19.2609 200.224 20.6644 199.779 22.3129C199.279 24.1706 199.121 26.064 199.213 27.983C199.32 30.2183 199.58 32.4231 200.699 34.4237C201.776 36.3529 203.231 37.8992 205.37 38.6342C208.475 39.7059 212.258 38.0013 212.181 33.8419C212.151 32.2138 212.181 30.5807 212.181 28.9526L212.171 28.9577Z" fill="white"/>
<path d="M182.313 37.1337C181.567 37.838 180.995 38.379 180.428 38.9149C179.734 39.5681 179.065 40.252 178.284 40.8032C176.436 42.1148 174.393 42.5997 172.178 42.0842C169.436 41.4463 167.93 39.5681 167.332 36.9194C166.954 35.2505 166.862 33.5357 166.857 31.826C166.847 28.131 166.857 24.436 166.857 20.7359C166.857 20.3786 166.857 20.0214 166.857 19.6641C166.816 17.3828 165.872 16.4387 163.564 16.3621C163.365 16.357 163.166 16.3774 162.967 16.3519C162.625 16.3111 162.517 16.0712 162.522 15.7599C162.522 15.4537 162.625 15.1934 162.967 15.1679C163.283 15.1424 163.6 15.1781 163.916 15.1781C165.903 15.1781 167.894 15.1781 169.88 15.1628C171.769 15.1526 171.861 15.2342 171.856 17.0817C171.851 21.1748 171.846 25.2679 171.835 29.3661C171.835 30.5195 171.835 31.6729 171.835 32.8263C171.835 33.6225 171.887 34.4135 172.029 35.1995C172.489 37.6951 174.552 39.0986 177.033 38.5117C179.081 38.0269 180.658 36.7663 182.078 35.276C182.379 34.9596 182.399 34.5615 182.399 34.1634C182.399 29.2742 182.394 24.385 182.384 19.4957C182.384 19.2559 182.364 19.0211 182.348 18.7812C182.261 17.6533 181.644 16.949 180.571 16.6581C180.076 16.5254 179.561 16.4438 179.05 16.3876C178.601 16.3417 178.253 16.2498 178.294 15.7038C178.34 15.1322 178.759 15.1679 179.172 15.1679C181.159 15.173 183.15 15.173 185.136 15.173C185.534 15.173 185.933 15.1475 186.331 15.173C187.081 15.2189 187.296 15.418 187.377 16.1835C187.418 16.5765 187.413 16.9797 187.413 17.3726C187.439 23.2571 187.459 29.1364 187.49 35.0209C187.49 35.5771 187.515 36.1334 187.587 36.6846C187.725 37.7206 188.189 38.1647 189.231 38.2055C189.782 38.231 190.339 38.134 190.895 38.0932C191.258 38.0677 191.518 38.2004 191.61 38.5678C191.702 38.9404 191.523 39.1752 191.191 39.313C190.86 39.4508 190.533 39.5937 190.201 39.7213C188.133 40.5327 186.07 41.3646 183.987 42.1506C182.808 42.5946 182.364 42.2577 182.404 40.9767C182.44 39.7927 182.496 38.6087 182.313 37.1337Z" fill="white"/>
<path d="M237.833 34.0206C238.052 33.8981 238.098 33.6582 238.18 33.449C239.988 28.9119 241.79 24.3748 243.592 19.8326C243.751 19.4294 243.899 19.016 244.016 18.5924C244.322 17.4901 244.047 16.9746 242.949 16.5969C242.612 16.4796 242.26 16.4183 241.912 16.3162C241.55 16.2091 241.397 15.959 241.468 15.5915C241.53 15.2547 241.775 15.1679 242.086 15.1679C244.511 15.1679 246.937 15.1679 249.367 15.1679C249.673 15.1679 249.923 15.2343 249.99 15.5762C250.056 15.9233 249.954 16.204 249.607 16.3571C249.5 16.403 249.387 16.4489 249.27 16.4796C248.024 16.7654 247.309 17.6432 246.829 18.7353C246.334 19.8632 245.88 21.0064 245.42 22.1496C242.29 29.8816 239.166 37.6084 236.041 45.3404C235.341 47.0756 234.555 48.7649 233.386 50.25C232.155 51.8219 230.624 52.9804 228.755 53.6898C227.397 54.2053 226.044 54.2563 224.701 53.6235C223.955 53.2713 223.373 52.7508 223.011 52.0108C222.117 50.1837 223.2 48.2749 225.227 48.0963C226.284 48.0044 227.279 48.2341 228.254 48.6169C230.098 49.3365 231.088 49.0303 232.222 47.4124C232.936 46.3968 233.442 45.274 233.901 44.1308C234.182 43.4316 234.356 42.6763 234.718 42.023C235.382 40.8339 235.239 39.8183 234.637 38.5985C231.64 32.5508 228.76 26.4418 225.824 20.3583C225.513 19.7152 225.165 19.0875 224.772 18.4904C224.165 17.5717 223.358 16.8827 222.27 16.5714C222.082 16.5153 221.888 16.4489 221.719 16.3571C221.438 16.204 221.372 15.9335 221.418 15.6426C221.464 15.3159 221.663 15.1628 221.995 15.173C222.194 15.1781 222.393 15.173 222.592 15.173C225.931 15.173 229.276 15.1679 232.615 15.1832C233.044 15.1832 233.677 14.9434 233.758 15.6732C233.84 16.3826 233.212 16.3111 232.768 16.4183C230.475 16.9797 230.067 17.7555 231.017 19.9041C233.054 24.5177 235.29 29.0446 237.46 33.597C237.547 33.7756 237.613 33.9696 237.843 34.0308L237.833 34.0206Z" fill="white"/>
<path d="M121.574 33.9949C121.574 32.2546 121.589 30.5193 121.564 28.779C121.559 28.2431 121.543 27.7226 122.182 27.5797C122.886 27.4215 123.182 27.8808 123.366 28.4728C123.667 29.4323 123.928 30.4173 124.321 31.341C126.006 35.3065 128.783 38.0216 133.169 38.7872C134.339 38.9913 135.503 38.9811 136.662 38.6136C140.465 37.399 141.941 33.2549 139.73 29.9375C139.128 29.0342 138.321 28.3452 137.453 27.7175C135.722 26.462 133.853 25.4413 131.944 24.492C129.835 23.4407 127.798 22.2719 125.786 21.042C118.756 16.7447 120.91 6.14459 126.823 3.42438C129.641 2.12806 132.5 1.7555 135.498 2.40366C136.81 2.68435 138.107 3.04161 139.403 3.40396C140.517 3.71528 141.512 3.73569 142.217 2.61801C142.528 2.12806 142.998 2.00047 143.539 2.1791C144.172 2.38324 144.116 2.92933 144.116 3.43458C144.116 6.79785 144.116 10.1662 144.116 13.5295C144.116 14.096 144.182 14.7339 143.432 14.8615C142.666 14.9891 142.324 14.4634 142.155 13.8102C141.67 11.9576 141.022 10.1713 139.996 8.54328C137.974 5.32801 134.104 3.86328 130.484 4.91973C126.537 6.07314 125.296 10.1356 127.936 13.2845C128.926 14.4634 130.172 15.3259 131.535 16.0047C133.593 17.0305 135.666 18.0206 137.734 19.0209C139.506 19.8784 141.206 20.8429 142.768 22.0474C148.63 26.5692 148.216 34.8574 142.273 38.9709C139.465 40.9154 136.381 41.5941 133.026 41.3849C130.719 41.2369 128.472 40.7571 126.251 40.1702C125.143 39.8793 124.209 39.9406 123.218 40.5683C122.131 41.2573 121.61 40.9102 121.579 39.5476C121.543 37.695 121.569 35.8475 121.569 33.9949H121.574Z" fill="white"/>
<path d="M150.897 27.687C150.897 24.7881 150.897 21.8893 150.897 18.9854C150.897 18.7098 150.902 18.4291 150.876 18.1535C150.825 17.5819 150.503 17.3063 149.932 17.3114C149.176 17.3114 148.42 17.3114 147.665 17.3114C147.297 17.3114 146.929 17.2961 146.817 16.847C146.715 16.4336 146.945 16.1682 147.261 15.9589C147.297 15.9385 147.328 15.9181 147.363 15.8977C150.743 14.0553 152.822 11.1207 154.266 7.66049C154.358 7.44104 154.455 7.22158 154.573 7.01744C154.741 6.71122 154.997 6.5377 155.359 6.62957C155.737 6.72654 155.803 7.01744 155.803 7.36448C155.798 9.34978 155.803 11.3402 155.798 13.3255C155.798 13.4429 155.778 13.5653 155.778 13.6827C155.747 15.0709 155.849 15.1781 157.223 15.1781C158.417 15.1781 159.607 15.1628 160.802 15.1781C161.665 15.1883 161.864 15.4026 161.864 16.2243C161.864 17.0511 161.639 17.3114 160.832 17.3216C159.638 17.3369 158.448 17.3216 157.253 17.3114C155.956 17.3012 155.783 17.4441 155.778 18.7098C155.768 20.297 155.803 21.8893 155.808 23.4765C155.813 27.2532 155.808 31.0298 155.814 34.8065C155.814 35.322 155.813 35.8476 155.921 36.3478C156.314 38.1749 158.239 38.9455 159.822 37.935C160.301 37.6288 160.649 37.2001 160.975 36.7459C161.185 36.455 161.389 36.1538 161.803 36.1385C162.283 36.1181 162.563 36.4601 162.359 36.8888C161.246 39.2364 159.73 41.14 157.008 41.7321C154.021 42.3853 151.361 40.5021 151.055 37.4553C150.789 34.8014 150.897 32.1373 150.953 29.4732C150.963 28.8761 150.953 28.279 150.953 27.687C150.937 27.687 150.917 27.687 150.902 27.687H150.897Z" fill="white"/>
<path d="M122.452 69.5925C122.35 69.4904 122.253 69.3883 122.151 69.2863C122.299 68.9698 122.452 68.6534 122.59 68.3319C122.682 68.1175 122.743 67.8164 123.055 67.9695C123.259 68.0665 123.182 68.3319 123.096 68.4952C122.907 68.8729 122.815 69.3169 122.447 69.5925H122.452Z" fill="white"/>
<path d="M98.2406 70.5775V69.8477H108.018V70.5775C106.859 70.6387 106.119 70.9092 105.792 71.3788C105.481 71.8381 105.322 72.5475 105.322 73.507V81.2083C105.322 81.5808 104.26 82.1422 102.141 82.8925C100.022 83.6274 98.0363 83.9948 96.1778 83.9948C92.1902 83.9948 88.8459 82.8925 86.1552 80.6877C83.4746 78.483 82.1369 75.135 82.1369 70.6489C82.1369 67.0356 83.3521 63.9479 85.7824 61.3808C88.2128 58.8137 91.4499 57.5327 95.4886 57.5327C97.0203 57.5327 98.4244 57.7318 99.6957 58.1298C100.967 58.5279 101.758 58.727 102.07 58.727C102.969 58.727 103.586 58.3289 103.923 57.5327H104.73L105.031 65.6066H104.168C102.611 61.2226 99.7723 59.0281 95.6621 59.0281C92.8846 59.0281 90.6585 60.0947 88.9889 62.2229C87.3193 64.3511 86.4819 67.3826 86.4819 71.3073C86.4819 74.6093 87.355 77.2989 89.1012 79.3812C90.8474 81.4634 93.2624 82.5046 96.3565 82.5046C97.7913 82.5046 99.0218 82.2851 100.058 81.8513C101.095 81.4175 101.61 80.8612 101.61 80.1876V73.9255C101.61 72.4556 101.36 71.5421 100.865 71.1797C100.37 70.8174 99.4915 70.6183 98.2457 70.5826L98.2406 70.5775Z" fill="white"/>
<path d="M109.703 83.4745V82.8927C110.464 82.8927 111.092 82.7294 111.592 82.4078C112.103 82.071 112.358 81.2391 112.358 79.902V61.5086C112.358 60.5849 112.246 59.9929 112.021 59.7326C111.796 59.4723 111.393 59.3396 110.806 59.3396C110.556 59.3396 110.188 59.3651 109.703 59.4162V58.8395C111.812 58.3546 113.716 57.7932 115.427 57.1553L115.575 57.2676V80.198C115.575 81.2442 115.753 81.9383 116.116 82.2752C116.478 82.612 117.183 82.8161 118.23 82.8927V83.4745H109.703Z" fill="white"/>
<path d="M120.323 74.7271C120.323 72.1957 121.069 70.0726 122.565 68.3527C124.071 66.6328 126.062 65.7754 128.528 65.7754C131.193 65.7754 133.297 66.5818 134.829 68.1843C136.376 69.7766 137.147 71.915 137.147 74.5944C137.147 77.2738 136.35 79.3611 134.752 81.1525C133.169 82.9337 131.163 83.8268 128.732 83.8268C126.302 83.8268 124.193 82.9541 122.636 81.2086C121.089 79.453 120.318 77.2891 120.318 74.722L120.323 74.7271ZM123.688 72.8183C123.688 75.4977 124.168 77.825 125.128 79.8103C126.088 81.7803 127.42 82.7652 129.131 82.7652C130.565 82.7652 131.699 82.1783 132.536 81.0096C133.374 79.8256 133.787 78.0699 133.787 75.7376C133.787 73.196 133.282 71.078 132.271 69.3836C131.26 67.6892 129.927 66.842 128.268 66.842C126.823 66.842 125.694 67.4085 124.883 68.5415C124.086 69.6745 123.688 71.1035 123.688 72.8234V72.8183Z" fill="white"/>
<path d="M144.239 69.0617C144.463 68.4646 145.066 67.7654 146.051 66.9693C147.037 66.1731 148.175 65.775 149.472 65.775C151.468 65.775 153.087 66.5865 154.333 68.2043C155.579 69.812 156.202 71.8228 156.202 74.2419C156.202 76.8957 155.328 79.1566 153.582 81.0245C151.851 82.8925 149.656 83.8264 147.001 83.8264C145.878 83.8264 144.601 83.5917 143.166 83.117C141.732 82.6322 141.017 82.0248 141.017 81.3052V61.5135C141.017 60.8041 140.894 60.2733 140.644 59.9263C140.409 59.5639 139.914 59.3853 139.169 59.3853C138.969 59.3853 138.699 59.3955 138.367 59.421V58.8443C140.711 58.2319 142.574 57.6756 143.958 57.1602L144.239 57.252V69.0617ZM144.239 80.9276C144.239 81.4635 144.637 81.8922 145.433 82.2188C146.245 82.5301 147.067 82.6883 147.9 82.6883C149.482 82.6883 150.697 82.1218 151.545 80.9888C152.403 79.8405 152.837 78.1308 152.837 75.8495C152.837 73.5682 152.408 71.7258 151.545 70.2815C150.682 68.8372 149.513 68.1125 148.032 68.1125C147.037 68.1125 146.148 68.4136 145.377 69.0107C144.616 69.5976 144.239 70.3019 144.239 71.1236V80.9378V80.9276Z" fill="white"/>
<path d="M168.343 72.1852V69.9601C168.343 67.8778 167.393 66.8367 165.499 66.8367C164.789 66.8367 164.161 67.0153 163.61 67.3777C163.064 67.7247 162.788 68.1483 162.788 68.6484C162.788 68.8373 162.819 69.072 162.88 69.3578C162.956 69.6334 162.992 69.8937 162.992 70.1438C162.992 70.6184 162.824 71.0012 162.487 71.3023C162.15 71.6034 161.757 71.7514 161.307 71.7514C160.797 71.7514 160.383 71.6034 160.072 71.3023C159.77 70.991 159.622 70.5776 159.622 70.0672C159.622 69.0465 160.164 68.0717 161.251 67.1531C162.349 66.2293 163.84 65.77 165.719 65.77C167.741 65.77 169.216 66.1987 170.151 67.0612C171.085 67.9237 171.555 69.4446 171.555 71.6391V79.4119C171.555 80.2081 171.636 80.7746 171.8 81.1114C171.963 81.4329 172.234 81.5963 172.622 81.5963C172.943 81.5963 173.25 81.535 173.536 81.4074C173.837 81.2849 174.113 81.091 174.378 80.8256V81.8718C173.719 82.5812 173.127 83.0865 172.601 83.3876C172.091 83.6734 171.529 83.8163 170.922 83.8163C169.339 83.8163 168.496 82.9181 168.399 81.1267C166.403 82.9232 164.59 83.8163 162.956 83.8163C161.772 83.8163 160.802 83.4387 160.041 82.6782C159.296 81.9076 158.918 80.9838 158.918 79.9121C158.918 77.9676 159.765 76.462 161.46 75.3903C163.166 74.3083 165.463 73.2366 168.343 72.175V72.1852ZM168.343 73.0988C165.938 73.997 164.325 74.8697 163.503 75.7169C162.691 76.5539 162.288 77.493 162.288 78.5392C162.288 79.463 162.522 80.203 162.997 80.7644C163.482 81.3258 164.07 81.6065 164.754 81.6065C165.377 81.6065 165.948 81.4891 166.474 81.2492C167.01 80.9991 167.46 80.7082 167.822 80.3714C167.97 80.2489 168.098 80.0907 168.195 79.9019C168.297 79.7028 168.343 79.3047 168.343 78.7076V73.0988Z" fill="white"/>
<path d="M175.634 83.4745V82.8927C176.395 82.8927 177.023 82.7294 177.523 82.4078C178.034 82.071 178.289 81.2391 178.289 79.902V61.5086C178.289 60.5849 178.177 59.9929 177.952 59.7326C177.728 59.4723 177.324 59.3396 176.737 59.3396C176.487 59.3396 176.119 59.3651 175.634 59.4162V58.8395C177.743 58.3546 179.647 57.7932 181.358 57.1553L181.506 57.2676V80.198C181.506 81.2442 181.685 81.9383 182.047 82.2752C182.41 82.612 183.114 82.8161 184.161 82.8927V83.4745H175.634Z" fill="white"/>
<path d="M76.638 9.17619C76.8064 9.72738 76.7247 10.2479 76.7247 10.7634C76.6839 19.0669 76.6686 27.3756 76.4082 35.674C76.3061 38.9046 75.7393 42.079 74.8867 45.1973C74.0136 48.3973 72.9311 51.5309 71.5985 54.5624C69.7809 58.6912 67.4935 62.5393 64.5934 66.0251C61.581 69.6435 58.1652 72.7975 54.3614 75.5535C49.9755 78.733 45.2271 81.2338 40.1673 83.1629C38.8653 83.658 37.6144 83.5355 36.3022 83.0098C31.6202 81.1419 27.27 78.6616 23.1344 75.824C19.3816 73.2518 15.9301 70.3019 12.9483 66.8519C10.181 63.657 7.98547 60.0845 6.13207 56.2721C4.90668 53.7509 3.82936 51.1838 3.00732 48.5198C1.49601 43.6203 0.301255 38.6392 0.23488 33.4744C0.132764 25.7884 0.0766004 18.1024 1.35215e-05 10.4113C-0.0101981 9.1966 1.3549e-05 9.1966 1.23051 9.18129C2.895 9.15577 4.54927 9.26805 6.20866 9.3344C11.5851 9.55385 16.9002 9.1966 22.1336 7.73697C26.1315 6.62439 29.8638 4.98104 33.4072 2.86815C34.7858 2.04647 36.1745 1.2299 37.5021 0.32656C38.2169 -0.158281 38.7734 -0.0613128 39.4474 0.362285C41.4744 1.6586 43.4809 3.00084 45.5845 4.16956C50.0061 6.62439 54.7341 8.19119 59.7684 8.88528C63.5467 9.41095 67.3301 9.52833 71.1288 9.39564C72.5023 9.34971 73.8757 9.21191 75.2492 9.12515C75.7189 9.09453 76.1886 9.03329 76.6431 9.17619H76.638ZM3.01243 23.6602H3.14518C3.14518 26.4569 3.12986 29.2588 3.14518 32.0556C3.1656 34.8115 3.48727 37.5522 3.97743 40.252C4.87094 45.1565 6.41799 49.8671 8.52158 54.4042C11.003 59.7528 14.3167 64.4736 18.6974 68.4391C22.3225 71.7258 26.2591 74.594 30.5071 77.008C32.8456 78.3349 35.2912 79.4833 37.8135 80.4427C38.1913 80.5856 38.513 80.6469 38.8959 80.4785C40.6217 79.7129 42.3832 79.0188 44.0885 78.1972C47.5451 76.5334 50.8231 74.5685 53.8508 72.1953C58.2009 68.7912 62.1273 64.9942 65.0631 60.2733C67.3658 56.5681 69.2294 52.6588 70.6744 48.5351C72.492 43.3396 73.3549 37.9962 73.5796 32.52C73.8144 26.7325 73.7379 20.9451 73.7736 15.1525C73.7736 14.535 73.7532 13.9174 73.7787 13.2999C73.8042 12.7538 73.5898 12.5088 73.0333 12.5548C72.7524 12.5752 72.4614 12.5599 72.1806 12.5548C67.8611 12.5037 63.5416 12.5956 59.2476 11.9832C54.9996 11.3758 50.9405 10.1408 47.0754 8.29837C44.5123 7.07861 42.0819 5.61388 39.6567 4.13894C37.9667 3.11312 38.3905 3.2305 36.9404 4.2257C34.3977 5.98134 31.707 7.47669 28.8631 8.64031C25.7179 9.93152 22.4808 10.9675 19.0957 11.5494C15.8178 12.1108 12.5449 12.616 9.21086 12.5701C7.45447 12.5497 5.69808 12.5241 3.94168 12.4986C3.02775 12.4833 3.00732 12.4782 3.00222 13.3969C2.99201 16.8112 3.00222 20.2306 3.00222 23.6449L3.01243 23.6602Z" fill="white"/>
<path d="M37.7063 8.91064C37.7318 9.4159 37.7727 9.85991 37.7727 10.309C37.7625 20.6999 37.7523 31.096 37.7318 41.4869C37.7318 43.2476 37.8748 43.0179 36.2307 43.023C27.3518 43.0282 18.4728 43.023 9.59381 43.023C7.92932 43.023 7.91401 43.023 7.66382 41.3644C6.70904 35.1023 6.54565 28.7993 6.72436 22.4862C6.77031 20.8275 6.82647 19.1689 6.89285 17.5051C6.93369 16.5099 6.95922 16.4538 7.97527 16.6324C9.0577 16.8212 10.1503 16.811 11.2328 16.9182C14.7098 17.2601 18.146 16.9284 21.5873 16.4486C25.5698 15.8924 29.3022 14.6267 32.7894 12.6312C34.2344 11.8044 35.5414 10.8041 36.7464 9.66087C37.0068 9.4159 37.1906 9.05865 37.6961 8.91064H37.7063ZM31.6662 29.3301C31.6662 27.7939 31.7223 26.6048 31.6508 25.4208C31.5845 24.3694 31.0739 23.956 30.1089 23.9458C29.1796 23.9356 28.6486 24.4103 28.5261 25.4003C28.4852 25.727 28.5057 26.0638 28.5057 26.3955C28.5057 28.0542 28.5414 29.718 28.4955 31.3767C28.4444 33.3058 27.2037 34.6787 25.3911 34.7807C23.4662 34.893 22.006 33.6273 21.9141 31.6574C21.8273 29.8558 21.8835 28.0491 21.8783 26.2475C21.8783 25.7729 21.8681 25.3034 21.6843 24.8492C21.3933 24.1244 20.847 23.8897 20.0964 23.9407C19.3969 23.9867 18.9527 24.2776 18.7689 24.987C18.6719 25.3595 18.626 25.727 18.626 26.1097C18.626 27.8654 18.6157 29.621 18.6311 31.3767C18.6413 32.28 18.6974 33.2139 19.0906 34.0152C20.2956 36.4956 22.1898 38.0164 25.0848 38.0368C28.2963 38.0624 30.7777 36.0873 31.5079 32.9435C31.8142 31.6216 31.5845 30.2947 31.6713 29.325L31.6662 29.3301Z" fill="white"/>
<path d="M38.993 8.64014C40.3205 9.92624 41.4182 10.9368 42.664 11.7891C44.6348 13.1364 46.7589 14.1673 48.9901 14.9482C53.5138 16.5303 58.2214 17.0509 62.98 17.0458C64.9202 17.0458 66.8706 16.9131 68.8006 16.6273C69.8064 16.4793 69.8217 16.5048 69.8779 17.5153C70.2506 24.3949 70.3017 31.2746 69.5613 38.1338C69.4337 39.3127 69.2499 40.4865 69.061 41.6553C68.8414 43.0179 68.8261 43.023 67.4628 43.023C62.8064 43.023 58.155 43.023 53.4985 43.023C49.225 43.023 44.9514 43.0332 40.6728 43.023C38.8602 43.023 39.0593 43.268 39.0542 41.4664C39.0287 31.1674 39.0134 20.8683 38.993 10.5642C38.993 10.0436 38.993 9.52306 38.993 8.64014ZM53.5138 23.9509C52.7071 23.9509 51.9004 23.9764 51.0937 23.9458C48.1374 23.8131 46.1564 25.237 44.8391 27.7786C42.7814 31.739 46.09 36.373 49.4037 36.812C51.8698 37.1386 54.3307 36.9293 56.7917 36.9957C56.9704 36.9957 57.1543 36.9089 57.3381 36.8579C58.0784 36.6435 58.4052 36.0975 58.446 35.383C58.4869 34.7093 58.0478 34.1581 57.3585 33.8825C56.899 33.6988 56.4292 33.7294 55.9544 33.7294C54.198 33.7294 52.4365 33.7702 50.6852 33.709C48.9288 33.6477 47.78 32.5556 47.6217 30.9428C47.4277 28.9779 48.1732 27.8603 49.9908 27.2887C50.5065 27.1253 51.0171 27.1202 51.5328 27.1202C53.2892 27.1202 55.0456 27.1407 56.802 27.1049C57.7516 27.0845 58.4715 26.3496 58.4562 25.5177C58.4409 24.6654 57.7414 23.9815 56.7917 23.9611C55.6991 23.9356 54.6065 23.956 53.5138 23.956V23.9509ZM53.0441 30.4018C53.0441 29.3811 52.4008 28.7483 51.3643 28.7585C50.4657 28.7738 49.7202 29.4883 49.7049 30.361C49.6896 31.198 50.4555 31.9891 51.3234 32.0248C52.3293 32.0656 53.0441 31.3919 53.0492 30.4018H53.0441Z" fill="white"/>
<path d="M68.1266 44.8247C65.5329 58.7116 52.8041 71.3072 39.1308 75.4616C38.8653 75.0278 38.993 74.5429 38.993 74.0836C38.9827 64.8818 38.9878 55.6749 38.9878 46.4732C38.9878 46.3303 38.9878 46.1874 38.9878 46.0445C39.0083 44.84 39.0083 44.8298 40.2694 44.8247C47.6728 44.8247 55.0813 44.8247 62.4847 44.8247C64.333 44.8247 66.1762 44.8247 68.1266 44.8247ZM44.0783 57.4765H44.0834C44.0834 58.6146 44.0528 59.7527 44.0936 60.8908C44.1294 61.8707 44.6706 62.3964 45.5692 62.4474C46.4066 62.4933 47.1214 61.937 47.2797 61.0643C47.3358 60.7428 47.3154 60.4009 47.3154 60.0691C47.3154 58.3135 47.2848 56.5579 47.3307 54.8022C47.3716 53.1487 48.2038 52.133 49.7457 51.7095C51.1958 51.3114 52.508 51.8575 53.3964 53.1691C53.8202 53.7917 53.9274 54.4654 53.9223 55.1901C53.9121 56.9917 53.9172 58.7932 53.9223 60.5999C53.9223 61.1715 53.9478 61.7329 54.489 62.1157C55.6174 62.9169 57.0266 62.3147 57.0675 60.9112C57.1338 58.5891 57.0879 56.2619 57.0164 53.9397C56.996 53.3426 56.7662 52.7353 56.5313 52.1688C55.4234 49.4843 52.268 47.9583 50.0266 48.2543C46.6465 48.6983 43.9303 51.5359 44.0732 54.9094C44.109 55.7617 44.0783 56.6191 44.0783 57.4714V57.4765Z" fill="white"/>
<path d="M8.75646 44.8249C9.24662 44.8249 9.71635 44.8249 10.1861 44.8249H36.1082C36.2971 44.8249 36.486 44.8249 36.68 44.8249C37.7523 44.8504 37.7727 44.8504 37.7727 45.9528C37.7778 55.4914 37.7778 65.03 37.7727 74.5636C37.7727 75.6149 37.7012 75.6353 36.7464 75.3087C32.0797 73.7317 27.847 71.3228 24.0636 68.2147C20.5457 65.321 17.5129 61.9373 14.9855 58.1147C13.2853 55.5425 11.7638 52.8835 10.5026 50.0714C9.94101 48.821 9.43043 47.5451 8.95048 46.2641C8.7922 45.8456 8.57776 45.3914 8.76157 44.8198L8.75646 44.8249ZM24.804 62.468C24.804 62.468 24.804 62.4578 24.804 62.4476C25.8966 62.4476 26.9892 62.4731 28.0768 62.4374C29.1337 62.4017 30.1497 62.1312 31.0075 61.4984C32.9783 60.0336 34.0455 58.1759 34.0097 55.5935C33.974 53.0672 31.6662 50.0306 28.8529 49.5764C26.3663 49.1732 23.8339 49.4029 21.3218 49.459C20.4079 49.4794 19.8871 50.1837 19.8973 51.0819C19.9024 51.8679 20.4487 52.5365 21.2452 52.6794C21.5669 52.7355 21.909 52.71 22.2409 52.71C23.9973 52.71 25.7536 52.6845 27.51 52.7202C29.2154 52.761 30.2416 53.6082 30.6756 55.2363C31.033 56.5632 30.451 57.9054 29.2052 58.7628C28.6282 59.1609 28.0155 59.2987 27.3313 59.2936C25.483 59.2834 23.6296 59.2681 21.7813 59.2936C20.6479 59.3089 20.2241 59.5947 19.9994 60.3449C19.6522 61.4882 20.1934 62.3711 21.3933 62.4476C22.5268 62.5191 23.6705 62.4629 24.8091 62.4629L24.804 62.468ZM28.572 56.0069C28.5465 55.0525 27.7857 54.3788 26.7901 54.4248C25.7843 54.4707 25.1001 55.1954 25.1614 56.1651C25.2073 56.9 26.1366 57.7727 26.8718 57.7829C27.6479 57.788 28.5925 56.8031 28.572 56.012V56.0069Z" fill="white"/>
</g>
<defs>
<clipPath id="clip0_1919_45698">
<rect width="250" height="84" fill="white"/>
</clipPath>
</defs>
</svg>
