<svg width="28" height="36" viewBox="0 0 28 36" fill="none" xmlns="http://www.w3.org/2000/svg">
<path d="M13.9999 36C13.6039 36 13.2439 35.82 12.9919 35.532C11.6959 34.056 0.211914 20.988 0.211914 13.788C0.211914 6.192 6.40391 0 13.9999 0C21.5959 0 27.7879 6.192 27.7879 13.788C27.7879 20.952 16.3039 34.056 15.0079 35.532C14.7559 35.82 14.3959 36 13.9999 36ZM13.9999 2.736C7.91591 2.736 2.94791 7.704 2.94791 13.788C2.94791 18.54 10.1839 28.008 13.9999 32.544C17.8159 28.044 25.0519 18.54 25.0519 13.788C25.0519 7.704 20.0839 2.736 13.9999 2.736Z" fill="black"/>
<path d="M13.9999 20.8797C10.1839 20.8797 7.08789 17.7837 7.08789 13.9677C7.08789 10.1517 10.1839 7.05566 13.9999 7.05566C17.8159 7.05566 20.9119 10.1517 20.9119 13.9677C20.9119 17.7837 17.8159 20.8797 13.9999 20.8797ZM13.9999 9.79166C11.6959 9.79166 9.82389 11.6637 9.82389 13.9677C9.82389 16.2717 11.6959 18.1437 13.9999 18.1437C16.3039 18.1437 18.1759 16.2717 18.1759 13.9677C18.1759 11.6637 16.3039 9.79166 13.9999 9.79166Z" fill="black"/>
</svg>
