<svg width="151" height="164" viewBox="0 0 151 164" fill="none" xmlns="http://www.w3.org/2000/svg">
<path d="M150.1 17.9799C150.43 19.0599 150.27 20.0799 150.27 21.0899C150.19 37.3599 150.16 53.6399 149.65 69.8999C149.45 76.2299 148.34 82.4499 146.67 88.5599C144.96 94.8299 142.84 100.97 140.23 106.91C136.67 115 132.19 122.54 126.51 129.37C120.61 136.46 113.92 142.64 106.47 148.04C97.88 154.27 88.58 159.17 78.67 162.95C76.12 163.92 73.67 163.68 71.1 162.65C61.93 158.99 53.41 154.13 45.31 148.57C37.96 143.53 31.2 137.75 25.36 130.99C19.94 124.73 15.64 117.73 12.01 110.26C9.61003 105.32 7.50003 100.29 5.89003 95.0699C2.93003 85.4699 0.590028 75.7099 0.460028 65.5899C0.260028 50.5299 0.150028 35.4699 2.80796e-05 20.3999C-0.0199719 18.0199 2.81334e-05 18.0199 2.41003 17.9899C5.67003 17.9399 8.91003 18.1599 12.16 18.2899C22.69 18.7199 33.1 18.0199 43.35 15.1599C51.18 12.9799 58.49 9.75994 65.43 5.61994C68.13 4.00994 70.85 2.40994 73.45 0.639943C74.85 -0.310057 75.94 -0.120057 77.26 0.709943C81.23 3.24994 85.16 5.87994 89.28 8.16994C97.94 12.9799 107.2 16.0499 117.06 17.4099C124.46 18.4399 131.87 18.6699 139.31 18.4099C142 18.3199 144.69 18.0499 147.38 17.8799C148.3 17.8199 149.22 17.6999 150.11 17.9799H150.1ZM5.90003 46.3599H6.16003C6.16003 51.8399 6.13003 57.3299 6.16003 62.8099C6.20003 68.2099 6.83003 73.5799 7.79003 78.8699C9.54003 88.4799 12.57 97.7099 16.69 106.6C21.55 117.08 28.04 126.33 36.62 134.1C43.72 140.54 51.43 146.16 59.75 150.89C64.33 153.49 69.12 155.74 74.06 157.62C74.8 157.9 75.43 158.02 76.18 157.69C79.56 156.19 83.01 154.83 86.35 153.22C93.12 149.96 99.54 146.11 105.47 141.46C113.99 134.79 121.68 127.35 127.43 118.1C131.94 110.84 135.59 103.18 138.42 95.0999C141.98 84.9199 143.67 74.4499 144.11 63.7199C144.57 52.3799 144.42 41.0399 144.49 29.6899C144.49 28.4799 144.45 27.2699 144.5 26.0599C144.55 24.9899 144.13 24.5099 143.04 24.5999C142.49 24.6399 141.92 24.6099 141.37 24.5999C132.91 24.4999 124.45 24.6799 116.04 23.4799C107.72 22.2899 99.77 19.8699 92.2 16.2599C87.18 13.8699 82.42 10.9999 77.67 8.10994C74.36 6.09994 75.19 6.32994 72.35 8.27994C67.37 11.7199 62.1 14.6499 56.53 16.9299C50.37 19.4599 44.03 21.4899 37.4 22.6299C30.98 23.7299 24.57 24.7199 18.04 24.6299C14.6 24.5899 11.16 24.5399 7.72003 24.4899C5.93003 24.4599 5.89003 24.4499 5.88003 26.2499C5.86003 32.9399 5.88003 39.6399 5.88003 46.3299L5.90003 46.3599Z" fill="#363E3F"/>
<path d="M73.85 17.46C73.9 18.45 73.98 19.32 73.98 20.2C73.96 40.56 73.94 60.93 73.9 81.29C73.9 84.74 74.18 84.29 70.96 84.3C53.57 84.31 36.18 84.3 18.79 84.3C15.53 84.3 15.5 84.3 15.01 81.05C13.14 68.78 12.82 56.43 13.17 44.06C13.26 40.81 13.37 37.56 13.5 34.3C13.58 32.35 13.63 32.24 15.62 32.59C17.74 32.96 19.88 32.94 22 33.15C28.81 33.82 35.54 33.17 42.28 32.23C50.08 31.14 57.39 28.66 64.22 24.75C67.05 23.13 69.61 21.17 71.97 18.93C72.48 18.45 72.84 17.75 73.83 17.46H73.85ZM62.02 57.47C62.02 54.46 62.13 52.13 61.99 49.81C61.86 47.75 60.86 46.94 58.97 46.92C57.15 46.9 56.11 47.83 55.87 49.77C55.79 50.41 55.83 51.07 55.83 51.72C55.83 54.97 55.9 58.23 55.81 61.48C55.71 65.26 53.28 67.95 49.73 68.15C45.96 68.37 43.1 65.89 42.92 62.03C42.75 58.5 42.86 54.96 42.85 51.43C42.85 50.5 42.83 49.58 42.47 48.69C41.9 47.27 40.83 46.81 39.36 46.91C37.99 47 37.12 47.57 36.76 48.96C36.57 49.69 36.48 50.41 36.48 51.16C36.48 54.6 36.46 58.04 36.49 61.48C36.51 63.25 36.62 65.08 37.39 66.65C39.75 71.51 43.46 74.49 49.13 74.53C55.42 74.58 60.28 70.71 61.71 64.55C62.31 61.96 61.86 59.36 62.03 57.46L62.02 57.47Z" fill="#313A3B"/>
<path d="M76.37 16.9299C78.97 19.4499 81.12 21.4299 83.56 23.0999C87.42 25.7399 91.58 27.7599 95.95 29.2899C104.81 32.3899 114.03 33.4099 123.35 33.3999C127.15 33.3999 130.97 33.1399 134.75 32.5799C136.72 32.2899 136.75 32.3399 136.86 34.3199C137.59 47.7999 137.69 61.2799 136.24 74.7199C135.99 77.0299 135.63 79.3299 135.26 81.6199C134.83 84.2899 134.8 84.2999 132.13 84.2999C123.01 84.2999 113.9 84.2999 104.78 84.2999C96.41 84.2999 88.04 84.3199 79.66 84.2999C76.11 84.2999 76.5 84.7799 76.49 81.2499C76.44 61.0699 76.41 40.8899 76.37 20.6999C76.37 19.6799 76.37 18.6599 76.37 16.9299ZM104.81 46.9299C103.23 46.9299 101.65 46.9799 100.07 46.9199C94.28 46.6599 90.4 49.4499 87.82 54.4299C83.79 62.1899 90.27 71.2699 96.76 72.1299C101.59 72.7699 106.41 72.3599 111.23 72.4899C111.58 72.4899 111.94 72.3199 112.3 72.2199C113.75 71.7999 114.39 70.7299 114.47 69.3299C114.55 68.0099 113.69 66.9299 112.34 66.3899C111.44 66.0299 110.52 66.0899 109.59 66.0899C106.15 66.0899 102.7 66.1699 99.27 66.0499C95.83 65.9299 93.58 63.7899 93.27 60.6299C92.89 56.7799 94.35 54.5899 97.91 53.4699C98.92 53.1499 99.92 53.1399 100.93 53.1399C104.37 53.1399 107.81 53.1799 111.25 53.1099C113.11 53.0699 114.52 51.6299 114.49 49.9999C114.46 48.3299 113.09 46.9899 111.23 46.9499C109.09 46.8999 106.95 46.9399 104.81 46.9399V46.9299ZM103.89 59.5699C103.89 57.5699 102.63 56.3299 100.6 56.3499C98.84 56.3799 97.38 57.7799 97.35 59.4899C97.32 61.1299 98.82 62.6799 100.52 62.7499C102.49 62.8299 103.89 61.5099 103.9 59.5699H103.89Z" fill="#313A3B"/>
<path d="M133.43 87.83C128.35 115.04 103.42 139.72 76.64 147.86C76.12 147.01 76.37 146.06 76.37 145.16C76.35 127.13 76.36 109.09 76.36 91.06C76.36 90.78 76.36 90.5 76.36 90.22C76.4 87.86 76.4 87.84 78.87 87.83C93.37 87.83 107.88 87.83 122.38 87.83C126 87.83 129.61 87.83 133.43 87.83ZM86.33 112.62H86.34C86.34 114.85 86.28 117.08 86.36 119.31C86.43 121.23 87.49 122.26 89.25 122.36C90.89 122.45 92.29 121.36 92.6 119.65C92.71 119.02 92.67 118.35 92.67 117.7C92.67 114.26 92.61 110.82 92.7 107.38C92.78 104.14 94.41 102.15 97.43 101.32C100.27 100.54 102.84 101.61 104.58 104.18C105.41 105.4 105.62 106.72 105.61 108.14C105.59 111.67 105.6 115.2 105.61 118.74C105.61 119.86 105.66 120.96 106.72 121.71C108.93 123.28 111.69 122.1 111.77 119.35C111.9 114.8 111.81 110.24 111.67 105.69C111.63 104.52 111.18 103.33 110.72 102.22C108.55 96.96 102.37 93.97 97.98 94.55C91.36 95.42 86.04 100.98 86.32 107.59C86.39 109.26 86.33 110.94 86.33 112.61V112.62Z" fill="#333C3C"/>
<path d="M17.15 87.8299C18.11 87.8299 19.03 87.8299 19.95 87.8299H70.72C71.09 87.8299 71.46 87.8299 71.84 87.8299C73.94 87.8799 73.98 87.8799 73.98 90.0399C73.99 108.73 73.99 127.42 73.98 146.1C73.98 148.16 73.84 148.2 71.97 147.56C62.83 144.47 54.54 139.75 47.13 133.66C40.24 127.99 34.3 121.36 29.35 113.87C26.02 108.83 23.04 103.62 20.57 98.1099C19.47 95.6599 18.47 93.1599 17.53 90.6499C17.22 89.8299 16.8 88.9399 17.16 87.8199L17.15 87.8299ZM48.58 122.4C48.58 122.4 48.58 122.38 48.58 122.36C50.72 122.36 52.86 122.41 54.99 122.34C57.06 122.27 59.05 121.74 60.73 120.5C64.59 117.63 66.68 113.99 66.61 108.93C66.54 103.98 62.02 98.0299 56.51 97.1399C51.64 96.3499 46.68 96.8 41.76 96.91C39.97 96.95 38.95 98.3299 38.97 100.09C38.98 101.63 40.05 102.94 41.61 103.22C42.24 103.33 42.91 103.28 43.56 103.28C47 103.28 50.44 103.23 53.88 103.3C57.22 103.38 59.23 105.04 60.08 108.23C60.78 110.83 59.64 113.46 57.2 115.14C56.07 115.92 54.87 116.19 53.53 116.18C49.91 116.16 46.28 116.13 42.66 116.18C40.44 116.21 39.61 116.77 39.17 118.24C38.49 120.48 39.55 122.21 41.9 122.36C44.12 122.5 46.36 122.39 48.59 122.39L48.58 122.4ZM55.96 109.74C55.91 107.87 54.42 106.55 52.47 106.64C50.5 106.73 49.16 108.15 49.28 110.05C49.37 111.49 51.19 113.2 52.63 113.22C54.15 113.23 56 111.3 55.96 109.75V109.74Z" fill="#333C3C"/>
<path d="M62.01 57.47C61.85 59.37 62.29 61.97 61.69 64.56C60.26 70.72 55.41 74.59 49.11 74.54C43.44 74.5 39.73 71.52 37.37 66.66C36.61 65.08 36.49 63.25 36.47 61.49C36.44 58.05 36.46 54.61 36.46 51.17C36.46 50.43 36.55 49.71 36.74 48.97C37.1 47.58 37.96 47.01 39.34 46.92C40.81 46.82 41.87 47.28 42.45 48.7C42.81 49.59 42.83 50.51 42.83 51.44C42.83 54.97 42.73 58.51 42.9 62.04C43.08 65.9 45.94 68.38 49.71 68.16C53.26 67.95 55.68 65.26 55.79 61.49C55.88 58.24 55.81 54.98 55.81 51.73C55.81 51.08 55.77 50.42 55.85 49.78C56.1 47.84 57.13 46.92 58.95 46.93C60.85 46.95 61.84 47.76 61.97 49.82C62.11 52.14 62 54.47 62 57.48L62.01 57.47Z" fill="#5CC4E6"/>
<path d="M104.82 46.9299C106.96 46.9299 109.1 46.8899 111.24 46.9399C113.1 46.9899 114.48 48.3199 114.5 49.9899C114.53 51.6199 113.11 53.0599 111.26 53.0999C107.82 53.1699 104.38 53.1199 100.94 53.1299C99.92 53.1299 98.93 53.1399 97.92 53.4599C94.36 54.5799 92.89 56.7699 93.28 60.6199C93.59 63.7799 95.85 65.9099 99.28 66.0399C102.72 66.1599 106.16 66.0699 109.6 66.0799C110.53 66.0799 111.45 66.0299 112.35 66.3799C113.7 66.9199 114.56 67.9999 114.48 69.3199C114.39 70.7299 113.76 71.7999 112.31 72.2099C111.96 72.3099 111.6 72.4899 111.24 72.4799C106.42 72.3499 101.6 72.7599 96.77 72.1199C90.29 71.2599 83.8 62.1799 87.83 54.4199C90.41 49.4499 94.29 46.6599 100.08 46.9099C101.66 46.9799 103.24 46.9199 104.82 46.9199V46.9299Z" fill="#F3F3F3"/>
<path d="M103.9 59.5699C103.9 61.5199 102.49 62.8399 100.52 62.7499C98.8201 62.6799 97.3201 61.1299 97.3501 59.4899C97.3801 57.7799 98.8401 56.3799 100.6 56.3499C102.63 56.3199 103.9 57.5599 103.89 59.5699H103.9Z" fill="#F3F3F3"/>
<path d="M86.33 112.62C86.33 110.95 86.39 109.27 86.32 107.6C86.04 100.98 91.36 95.4199 97.98 94.5599C102.37 93.9899 108.55 96.9699 110.72 102.23C111.18 103.33 111.63 104.53 111.67 105.7C111.81 110.25 111.9 114.81 111.77 119.36C111.69 122.12 108.93 123.29 106.72 121.72C105.66 120.96 105.61 119.86 105.61 118.75C105.6 115.22 105.59 111.69 105.61 108.15C105.61 106.73 105.41 105.41 104.58 104.19C102.84 101.62 100.27 100.56 97.43 101.33C94.41 102.16 92.78 104.15 92.7 107.39C92.61 110.83 92.68 114.27 92.67 117.71C92.67 118.36 92.72 119.02 92.6 119.66C92.29 121.37 90.89 122.46 89.25 122.37C87.49 122.27 86.43 121.24 86.36 119.32C86.28 117.09 86.34 114.86 86.34 112.63H86.33V112.62Z" fill="#F7F7F7"/>
<path d="M48.58 122.4C46.35 122.4 44.11 122.51 41.89 122.37C39.54 122.22 38.49 120.49 39.16 118.25C39.6 116.78 40.44 116.22 42.65 116.19C46.27 116.14 49.9 116.16 53.52 116.19C54.86 116.19 56.05 115.93 57.19 115.15C59.62 113.47 60.76 110.85 60.07 108.24C59.22 105.05 57.2 103.38 53.87 103.31C50.43 103.23 46.99 103.29 43.55 103.29C42.9 103.29 42.24 103.34 41.6 103.23C40.03 102.95 38.97 101.65 38.96 100.1C38.94 98.34 39.96 96.96 41.75 96.92C46.67 96.81 51.63 96.36 56.5 97.15C62.01 98.04 66.53 104 66.6 108.94C66.67 114 64.58 117.64 60.72 120.51C59.04 121.76 57.05 122.29 54.98 122.35C52.85 122.42 50.71 122.37 48.57 122.37C48.57 122.38 48.57 122.39 48.57 122.41L48.58 122.4Z" fill="#F5F6F7"/>
<path d="M55.96 109.74C56 111.29 54.15 113.22 52.63 113.21C51.18 113.2 49.37 111.48 49.28 110.04C49.16 108.15 50.5 106.72 52.47 106.63C54.43 106.54 55.91 107.86 55.96 109.73V109.74Z" fill="#F3F3F3"/>
</svg>
